<?xml version="1.0" standalone="no"?>
<!DOCTYPE svg PUBLIC "-//W3C//DTD SVG 20010904//EN"
 "http://www.w3.org/TR/2001/REC-SVG-20010904/DTD/svg10.dtd">
<svg version="1.0" xmlns="http://www.w3.org/2000/svg"
 width="1338.000000pt" height="1338.000000pt" viewBox="0 0 1338.000000 1338.000000"
 preserveAspectRatio="xMidYMid meet">
<metadata>
Created by potrace 1.14, written by Peter Selinger 2001-2017
</metadata>
<g transform="translate(0.000000,1338.000000) scale(0.100000,-0.100000)"
fill="#000000" stroke="none">
<path d="M5720 10836 c0 -103 0 -2343 0 -2453 l0 -73 69 0 c38 0 76 -3 85 -6
17 -7 22 -34 6 -34 -5 0 -10 -6 -10 -13 0 -9 -23 -18 -61 -25 -124 -23 -171
-72 -115 -117 l27 -21 2 -920 c2 -1033 -4 -951 78 -1034 131 -132 364 -70 418
111 8 25 11 320 11 941 l0 904 30 17 c18 11 46 17 72 16 107 -6 154 34 146
127 l-5 54 94 0 c108 0 106 4 55 -95 -15 -27 -27 -68 -28 -90 -1 -22 -7 -97
-13 -168 -11 -123 -11 -128 9 -149 11 -12 20 -29 19 -38 -1 -8 0 -19 1 -25 2
-5 3 -36 4 -68 1 -36 6 -61 14 -66 9 -5 16 -38 19 -90 l6 -81 31 0 c26 -1 35
-8 59 -46 15 -25 27 -52 27 -60 0 -8 7 -14 15 -14 8 0 15 -4 15 -9 0 -22 191
-221 213 -221 7 0 28 -16 47 -35 19 -19 39 -35 45 -35 14 0 138 -61 145 -71 3
-4 34 -12 69 -19 35 -6 85 -22 110 -35 25 -13 66 -33 91 -44 90 -42 125 -64
212 -133 34 -27 64 -48 69 -48 5 0 9 -6 9 -14 0 -8 4 -16 8 -18 11 -4 72 -94
72 -106 0 -5 7 -15 15 -22 8 -7 15 -21 15 -31 0 -9 7 -24 15 -33 17 -17 20
-46 5 -46 -17 0 -12 -90 5 -96 23 -9 18 -30 -12 -53 -16 -11 -35 -27 -43 -34
-14 -12 -47 -28 -60 -28 -3 0 -13 -7 -22 -16 -23 -21 -138 -60 -201 -68 -116
-16 -359 -7 -432 15 -16 5 -61 19 -100 30 -101 30 -211 88 -268 141 -24 22
-70 31 -79 16 -13 -20 -9 -27 17 -27 16 0 25 -6 25 -15 0 -8 3 -14 8 -13 4 2
27 -11 52 -28 56 -38 184 -99 228 -109 17 -3 32 -11 32 -16 0 -6 4 -8 9 -5 4
3 23 1 42 -5 47 -15 106 -28 154 -35 22 -3 65 -9 95 -13 103 -13 426 3 460 24
3 2 26 6 50 10 25 3 56 10 70 14 14 5 45 14 70 22 25 7 50 19 57 26 6 8 17 16
25 17 7 2 21 6 30 10 9 4 22 5 28 1 5 -3 10 -1 10 4 0 6 6 11 13 11 7 0 23 9
35 20 24 23 58 26 65 8 3 -7 6 -2 6 10 1 15 9 26 21 29 11 3 20 13 20 22 0 27
37 51 79 51 43 0 52 11 44 53 -4 22 -2 27 16 27 19 0 21 6 21 59 0 61 23 121
48 121 7 0 12 13 12 30 0 23 4 30 20 30 17 0 20 7 20 45 0 33 -4 45 -15 45 -9
0 -15 9 -15 24 0 13 -4 26 -9 28 -6 2 -12 45 -15 97 -3 58 -11 102 -20 116 -8
13 -16 33 -18 46 -2 13 -11 35 -21 49 -9 13 -17 30 -17 37 0 7 -4 13 -9 13 -5
0 -12 9 -16 20 -8 24 -116 133 -156 157 -16 9 -29 21 -29 25 0 4 -7 8 -16 8
-8 0 -13 4 -10 9 6 9 -22 26 -36 23 -5 -1 -8 2 -8 7 0 4 -22 19 -50 32 -51 24
-59 36 -38 57 14 14 7 15 -56 12 -37 -2 -38 -1 -32 24 5 21 3 26 -13 26 -11 0
-23 5 -27 11 -4 7 -21 9 -43 5 -43 -7 -149 23 -166 48 -7 9 -17 16 -24 16 -6
0 -11 5 -11 10 0 6 -8 10 -18 10 -10 0 -24 9 -32 20 -15 21 -55 27 -65 10 -8
-14 -66 -5 -75 10 -4 7 -10 11 -14 11 -13 -2 -46 24 -46 37 0 9 -7 11 -21 7
-12 -4 -40 -1 -61 6 -37 12 -39 15 -33 43 11 52 11 58 -10 70 -11 6 -23 15
-26 20 -4 4 -21 5 -38 1 -19 -4 -31 -3 -31 4 0 5 -9 13 -20 16 -12 4 -20 15
-20 28 0 12 -7 40 -15 62 -18 52 -19 75 0 75 8 0 15 7 15 15 0 9 14 17 38 21
20 3 66 14 102 24 36 10 91 24 123 32 31 7 57 16 57 20 0 5 9 8 21 8 11 0 33
6 47 14 15 8 54 27 87 42 32 15 79 41 102 56 62 42 153 141 186 201 35 65 60
89 89 83 39 -7 131 -63 124 -75 -2 -3 9 -6 25 -6 16 -1 29 3 29 7 0 12 -40 45
-74 63 -49 25 -95 51 -111 65 -17 14 -21 70 -5 70 24 0 3 246 -25 303 -8 17
-15 35 -15 42 0 13 -56 93 -82 116 -10 9 -18 21 -18 26 0 11 -75 83 -87 83 -5
0 -16 13 -24 28 -21 43 -144 149 -231 200 -43 24 -78 48 -78 53 0 20 14 39 29
39 9 0 51 20 95 45 43 25 80 45 82 45 22 0 138 124 180 191 42 69 78 207 70
264 -17 116 -41 193 -76 245 -10 14 -19 34 -21 45 -2 11 -14 24 -26 29 -11 6
-29 24 -39 40 -22 40 -45 62 -72 70 -11 4 -24 16 -27 27 -6 18 -77 91 -149
152 -81 70 -270 147 -410 168 -75 12 -699 20 -713 10 -4 -3 -9 -12 -10 -18 -2
-10 37 -13 170 -14 204 -1 215 -3 289 -28 84 -29 151 -77 146 -106 -4 -17 5
-28 38 -51 90 -60 135 -196 139 -419 5 -225 -31 -347 -132 -456 -110 -118
-227 -157 -465 -155 l-143 1 -5 511 c-6 593 2 552 -112 575 l-57 11 -3 77 -3
76 -282 1 -283 0 0 -90z m1230 -1224 c86 -29 90 -32 90 -73 0 -33 -3 -39 -21
-39 -36 0 -10 -19 49 -36 31 -9 82 -29 112 -45 61 -33 83 -67 116 -189 35
-126 21 -496 -20 -529 -6 -5 -29 -11 -51 -14 -36 -4 -67 -15 -145 -49 -14 -6
-36 -16 -50 -21 -14 -6 -37 -19 -52 -29 -14 -10 -31 -18 -38 -18 -6 0 -17 -6
-24 -12 -7 -7 -28 -24 -47 -38 -40 -29 -159 -151 -159 -162 0 -4 -54 -8 -120
-8 l-120 0 0 28 c0 40 -13 1182 -14 1217 l-1 30 80 5 c112 7 373 -4 415 -18z"/>
<path d="M8125 8376 c-75 -29 -98 -48 -138 -117 -24 -41 -26 -53 -23 -125 2
-66 7 -85 29 -118 15 -21 27 -42 27 -46 0 -10 95 -60 113 -60 9 0 23 -8 32
-17 15 -15 24 -15 73 -5 31 6 59 17 62 23 4 6 11 11 16 11 14 1 84 50 84 59 0
4 7 14 15 22 23 23 46 126 40 172 -8 54 -25 105 -34 105 -4 0 -14 12 -22 26
-7 14 -36 39 -64 55 -42 24 -60 29 -115 28 -36 -1 -78 -7 -95 -13z"/>
<path d="M7570 7710 c0 -5 5 -10 10 -10 6 0 10 5 10 10 0 6 -4 10 -10 10 -5 0
-10 -4 -10 -10z"/>
<path d="M8290 7390 c0 -5 5 -10 10 -10 6 0 10 5 10 10 0 6 -4 10 -10 10 -5 0
-10 -4 -10 -10z"/>
<path d="M6727 6895 c-17 -6 -36 -12 -42 -13 -14 -4 -55 -33 -74 -54 -31 -33
-40 -47 -47 -72 -3 -15 -10 -29 -15 -32 -15 -9 -10 -111 8 -156 9 -23 25 -50
35 -60 10 -10 16 -24 12 -30 -4 -6 -3 -8 4 -4 5 3 24 -6 41 -20 17 -14 31 -23
31 -20 0 4 15 -1 33 -11 40 -21 142 -17 188 8 17 9 24 9 27 1 7 -21 36 20 83
116 26 53 30 70 26 115 -3 28 -8 63 -12 77 -4 14 -7 31 -7 38 -1 12 -86 106
-98 107 -3 1 -21 5 -40 10 -53 12 -117 13 -153 0z"/>
<path d="M8010 6030 c0 -5 5 -10 10 -10 6 0 10 5 10 10 0 6 -4 10 -10 10 -5 0
-10 -4 -10 -10z"/>
<path d="M5724 6008 c-3 -5 -6 -1277 -4 -2503 l0 -104 78 -3 77 -3 3 -35 c2
-19 10 -50 18 -67 26 -57 50 -63 266 -63 236 0 257 5 280 62 10 24 15 52 13
63 -3 11 -2 25 2 32 6 8 118 13 403 16 217 2 405 7 418 12 17 5 22 4 22 -8 0
-22 -61 -87 -80 -87 -24 0 -60 -29 -60 -49 0 -15 13 -21 65 -31 54 -10 80 -9
162 4 54 9 114 22 133 28 60 18 185 72 195 84 21 23 89 40 135 33 123 -19 414
-7 510 21 70 20 72 24 71 150 0 91 3 118 16 132 18 20 18 21 28 178 4 63 8
131 10 150 2 19 6 80 9 135 4 55 9 120 11 145 5 50 11 138 20 275 3 50 7 115
10 145 4 54 8 100 20 265 3 44 8 103 10 130 2 28 7 93 10 145 3 52 8 113 10
135 2 22 7 83 10 135 3 52 11 145 17 205 6 61 11 141 12 178 1 60 -1 68 -19
73 -11 2 -272 3 -580 2 l-560 -3 -5 -42 -5 -43 -28 15 c-53 27 -161 63 -247
80 -70 15 -143 18 -419 19 -311 1 -334 0 -337 -16 -1 -11 4 -18 14 -19 10 0
98 -1 197 -3 103 -1 197 -8 220 -15 63 -18 128 -54 139 -76 6 -11 15 -23 19
-26 5 -3 7 -12 6 -20 -6 -26 21 -58 64 -77 36 -16 47 -28 66 -73 54 -124 76
-343 50 -499 -21 -131 -83 -244 -173 -316 -104 -84 -176 -104 -393 -109 -98
-2 -165 0 -169 6 -3 5 -5 231 -5 502 2 583 7 552 -99 577 l-65 16 -5 74 -5 75
-278 0 c-153 0 -281 -3 -283 -7z m1206 -1302 c112 -29 172 -70 121 -83 -12 -3
-21 -9 -21 -14 0 -5 -10 -9 -22 -9 l-22 0 21 -20 c12 -10 33 -22 47 -26 15 -3
29 -10 32 -15 3 -5 14 -9 26 -9 11 0 42 -8 69 -17 45 -16 50 -22 77 -83 27
-59 43 -113 57 -195 9 -53 6 -248 -4 -315 -26 -163 -83 -281 -177 -369 -104
-98 -131 -105 -425 -109 l-247 -3 -3 28 c-2 15 -3 303 -1 640 l3 612 22 3 c12
2 103 3 202 2 133 -1 197 -6 245 -18z"/>
<path d="M4320 2899 c-30 -3 -46 -6 -34 -7 41 -4 44 -18 44 -199 l0 -174 -32
-14 c-31 -13 -25 -14 92 -15 137 0 183 9 213 40 42 46 28 139 -24 155 -25 8
-24 19 6 49 42 42 29 122 -24 146 -34 16 -170 27 -241 19z"/>
<path d="M6034 2876 c-65 -65 -38 -143 71 -199 42 -21 82 -58 89 -83 16 -52
-36 -98 -97 -87 -29 6 -83 55 -93 85 -11 36 -21 17 -16 -29 6 -59 21 -92 32
-73 6 10 17 10 53 1 61 -15 83 -14 122 5 44 21 70 70 61 117 -8 43 -28 64
-118 122 -77 50 -92 72 -78 110 24 62 116 46 155 -27 11 -21 24 -38 28 -38 5
0 6 3 3 8 -2 4 -5 30 -7 57 -3 57 -8 73 -19 55 -6 -10 -18 -10 -53 -1 -74 18
-96 14 -133 -23z"/>
<path d="M6340 2898 c-33 -10 -34 -11 -12 -19 22 -8 22 -11 22 -188 l0 -179
-27 -10 c-23 -9 -14 -11 52 -11 71 -1 77 1 55 12 -22 11 -25 20 -26 70 -1 31
1 57 5 57 4 0 23 -21 42 -47 51 -70 53 -74 38 -84 -9 -5 13 -9 56 -8 67 0 69
0 43 14 -15 8 -52 48 -84 87 l-56 73 47 42 c26 24 61 47 78 52 27 8 20 9 -38
9 -38 0 -62 -2 -52 -5 9 -2 17 -8 17 -13 0 -13 -84 -90 -90 -83 -3 2 -6 55 -7
116 0 62 -1 115 -2 120 -1 9 -17 8 -61 -5z"/>
<path d="M7268 2901 c-6 -2 3 -10 21 -17 l31 -13 0 -176 0 -176 -32 -14 c-31
-13 -24 -14 94 -15 145 0 194 13 221 59 32 55 15 110 -45 139 l-38 20 29 11
c36 15 53 53 45 97 -8 43 -43 71 -97 79 -50 7 -212 12 -229 6z"/>
<path d="M6671 2876 c-16 -20 -3 -46 24 -46 13 0 26 7 29 16 7 19 -10 44 -29
44 -7 0 -18 -6 -24 -14z"/>
<path d="M8577 2797 c-42 -46 -42 -47 -23 -47 11 0 15 -25 18 -121 3 -105 5
-122 22 -135 23 -16 63 -9 90 17 19 18 19 18 -17 12 -27 -4 -37 -2 -38 8 -1 8
-3 60 -4 117 l-2 102 33 0 c19 0 34 5 34 10 0 6 -15 10 -33 10 -31 0 -34 3
-35 31 0 17 -2 33 -4 34 -2 2 -20 -15 -41 -38z"/>
<path d="M4806 2749 l-33 -29 5 25 c5 30 -9 32 -62 10 -38 -16 -48 -28 -19
-23 22 4 29 -29 27 -122 -2 -101 -1 -96 -26 -108 -19 -9 -8 -11 57 -11 65 1
75 2 53 11 -31 11 -31 10 -28 123 1 96 18 125 56 100 20 -13 25 -13 38 0 19
19 11 41 -15 48 -13 4 -32 -5 -53 -24z"/>
<path d="M5005 2772 c-110 -23 -136 -203 -38 -267 35 -23 101 -23 140 0 82 48
92 184 18 241 -30 23 -81 34 -120 26z"/>
<path d="M5691 2760 c-37 -14 -41 -18 -23 -22 21 -6 22 -12 22 -117 0 -106 -1
-112 -22 -121 -17 -6 -3 -9 52 -9 55 0 69 3 53 9 -27 11 -25 3 -27 115 -1 81
1 92 20 108 12 9 31 17 42 17 35 0 44 -25 45 -125 0 -83 -2 -97 -19 -110 -17
-13 -13 -14 45 -15 55 0 62 2 47 13 -14 10 -17 31 -19 119 -2 86 -5 110 -20
126 -28 31 -65 33 -108 6 l-38 -23 -3 23 -3 24 -44 -18z"/>
<path d="M6831 2760 c-37 -14 -41 -18 -23 -22 21 -6 22 -12 22 -117 0 -106 -1
-112 -22 -121 -17 -6 -3 -9 52 -9 55 0 69 3 53 9 -13 5 -23 15 -24 22 -1 7 -2
51 -3 97 -1 72 1 87 18 103 11 10 30 18 42 18 38 0 47 -24 47 -127 -1 -81 -4
-99 -19 -110 -15 -11 -9 -13 46 -13 54 0 61 2 47 13 -14 10 -18 32 -20 121 -3
104 -5 110 -30 132 -29 25 -64 24 -101 -1 -22 -16 -40 -20 -32 -7 2 4 2 13 -2
19 -5 7 -20 5 -51 -7z"/>
<path d="M7760 2762 c-47 -24 -69 -59 -76 -117 -19 -155 147 -223 226 -92 26
42 19 45 -18 7 -36 -35 -87 -41 -121 -12 -22 18 -52 88 -45 107 3 6 38 9 94 7
85 -3 90 -2 90 17 0 74 -80 119 -150 83z"/>
<path d="M8043 2770 c-18 -4 -39 -13 -47 -19 -20 -17 -26 -49 -11 -61 20 -17
45 -1 45 30 0 46 64 58 80 14 19 -49 13 -60 -44 -84 -81 -33 -120 -85 -96
-130 19 -36 57 -43 102 -20 38 20 38 20 58 0 11 -11 23 -20 28 -20 12 0 68 40
57 41 -5 1 -17 2 -25 3 -12 1 -16 22 -20 101 -7 112 -12 132 -43 140 -41 12
-52 13 -84 5z"/>
<path d="M5229 2738 c11 -18 38 -81 61 -140 23 -59 45 -110 49 -113 5 -2 25
32 45 77 22 49 40 78 46 72 5 -5 20 -38 33 -74 14 -35 29 -66 34 -67 6 -2 16
11 23 29 7 18 18 47 25 63 7 17 22 57 35 90 13 33 30 68 38 78 14 16 12 17
-28 17 -39 0 -42 -2 -26 -13 17 -12 16 -17 -14 -95 -17 -45 -35 -82 -38 -82
-8 0 -62 139 -62 158 0 6 8 16 18 21 13 8 1 10 -47 11 l-65 0 22 -20 c34 -32
37 -64 11 -125 -13 -30 -27 -55 -30 -55 -4 0 -21 39 -39 87 -31 82 -32 87 -14
100 16 11 11 13 -39 13 l-56 0 18 -32z"/>
<path d="M6663 2757 c-31 -12 -58 -31 -38 -27 44 9 46 5 43 -107 -3 -103 -4
-108 -28 -120 -22 -11 -16 -13 55 -12 44 0 73 3 65 6 -34 12 -40 36 -40 155 0
128 1 126 -57 105z"/>
<path d="M8238 2760 c21 -9 22 -15 22 -110 0 -108 15 -159 48 -161 42 -4 65 2
90 22 l27 21 3 -21 c4 -24 8 -25 51 -10 28 10 30 13 15 23 -13 10 -16 33 -17
129 l-1 117 -50 -1 c-41 0 -46 -2 -28 -9 24 -10 24 -9 25 -128 0 -88 -3 -96
-51 -108 -45 -12 -57 15 -57 134 l-1 107 -49 2 c-39 2 -45 0 -27 -7z"/>
<path d="M8723 2758 c9 -7 41 -67 72 -132 59 -125 61 -142 28 -193 -13 -20
-22 -24 -45 -19 -36 7 -58 -2 -58 -23 0 -24 35 -42 62 -32 41 16 60 48 124
218 35 92 72 174 81 181 14 10 9 12 -32 12 -43 0 -47 -2 -31 -13 19 -14 15
-29 -40 -177 -4 -9 -18 11 -38 55 -50 106 -51 114 -24 124 18 8 7 10 -46 10
-58 1 -67 -1 -53 -11z"/>
</g>
</svg>
